# xmcd CD database file
#
# Track frame offsets:
#	150
#	21215
#	33435
#	42297
#	67772
#	79479
#	92482
#	111342
#	128580
#	143562
#	164062
#
# Disc length: 2424 seconds
#
# Revision: 1
# Processed by: cddbd v1.5.2PL0 Copyright (c) Steve Scherf et al.
# Submitted via: jetAudio 5
#
DISCID=8c09760b
DTITLE=Ivan Lins - Chama Acesa
DYEAR=1900
DGENRE=
TTITLE0=Sorriso Da Magoa
TTITLE1=Nesse Botequim
TTITLE2=Chama Acesa
TTITLE3=Lenda Do Carmo
TTITLE4=Joana Dos Barcos
TTITLE5=Ventos De Junho
TTITLE6=Nao Ha Porque
TTITLE7=Demonio De Guarda
TTITLE8=Poeira, Cinza E Fumaca
TTITLE9=Palhacos E Reis
TTITLE10=Corpos
EXTD=
EXTT0=
EXTT1=
EXTT2=
EXTT3=
EXTT4=
EXTT5=
EXTT6=
EXTT7=
EXTT8=
EXTT9=
EXTT10=
PLAYORDER=
